<?xml version="1.0" encoding="utf-8"?>
<!-- Generator: Adobe Illustrator 13.0.2, SVG Export Plug-In . SVG Version: 6.00 Build 14948)  -->
<!DOCTYPE svg PUBLIC "-//W3C//DTD SVG 1.0//EN" "http://www.w3.org/TR/2001/REC-SVG-20010904/DTD/svg10.dtd">
<svg version="1.0" id="Layer_1" xmlns="http://www.w3.org/2000/svg" xmlns:xlink="http://www.w3.org/1999/xlink" x="0px" y="0px"
	 width="112.518px" height="354.904px" viewBox="0 0 112.518 354.904" enable-background="new 0 0 112.518 354.904"
	 xml:space="preserve">
<line fill="none" stroke="#676767" stroke-width="2" x1="50.869" y1="117.834" x2="13.889" y2="51.72"/>
<path fill="none" stroke="#000000" d="M44.675,96.899c0,0,44.053,27.466,44.053,64.829c0,24.1-24.358,25.995-24.358,40.616"/>
<circle fill="#676767" cx="51.527" cy="321.905" r="33"/>
<path fill="none" stroke="#FFFFFF" stroke-width="1.1" stroke-linecap="round" d="M37.502,346.197
	c13.417,7.746,30.571,3.15,38.317-10.268c7.746-13.416,3.15-30.57-10.268-38.316"/>
<polygon points="96.527,321.905 89.662,327.909 13.385,327.909 6.527,321.905 6.527,201.905 96.527,201.905 "/>
<line fill="none" stroke="#676767" stroke-width="2" x1="64.516" y1="35.502" x2="42.514" y2="103"/>
<line fill="none" stroke="#676767" x1="70.076" y1="17.84" x2="42.514" y2="103"/>
<line fill="none" stroke="#676767" x1="42.514" y1="103" x2="5.534" y2="36.886"/>
<line fill="none" stroke="#676767" stroke-width="0.5" x1="75.514" y1="1" x2="42.514" y2="103"/>
<line fill="none" stroke="#676767" x1="111.514" y1="115" x2="45.514" y2="103"/>
<line fill="none" stroke="#676767" stroke-width="2" x1="94.74" y1="111.869" x2="28.74" y2="99.869"/>
<line fill="none" stroke="#676767" stroke-width="3" x1="53.252" y1="126.925" x2="53.252" y2="201.905"/>
<line fill="none" stroke="#676767" stroke-width="3" x1="36.711" y1="126.925" x2="36.711" y2="201.905"/>
<line fill="none" stroke="#676767" stroke-width="3" x1="44.982" y1="126.925" x2="44.982" y2="201.905"/>
<circle cx="44.997" cy="99.907" r="45"/>
<circle fill="#FFFFFF" cx="32.997" cy="93.905" r="13.949"/>
<path d="M39.758,143.49c0-1.15-0.932-2.082-2.082-2.082h-1.837c-1.148,0-2.082,0.932-2.082,2.082l0,0
	c0,1.149,0.933,2.081,2.082,2.081h1.837C38.826,145.571,39.758,144.639,39.758,143.49L39.758,143.49z"/>
<path d="M60.338,57.672c0.376-1.087-0.198-2.272-1.284-2.649l-1.735-0.602c-1.086-0.376-2.271,0.198-2.648,1.285l0,0
	c-0.377,1.086,0.198,2.271,1.284,2.647l1.736,0.603C58.776,59.333,59.961,58.758,60.338,57.672L60.338,57.672z"/>
<path d="M88.115,113.543c1.11,0.3,2.253-0.356,2.554-1.465l0.48-1.773c0.3-1.109-0.355-2.252-1.466-2.553l0,0
	c-1.109-0.301-2.253,0.354-2.554,1.464l-0.479,1.774C86.35,112.099,87.005,113.242,88.115,113.543L88.115,113.543z"/>
<path d="M22.749,61.63c-0.555-1.007-1.82-1.374-2.828-0.82l-1.608,0.886c-1.006,0.556-1.373,1.82-0.818,2.828l0,0
	c0.554,1.008,1.82,1.375,2.826,0.82l1.61-0.887C22.937,63.902,23.303,62.638,22.749,61.63L22.749,61.63z"/>
<path d="M47.968,144.781c0-1.149-0.932-2.082-2.081-2.082h-1.838c-1.148,0-2.082,0.932-2.082,2.082l0,0
	c0,1.148,0.933,2.081,2.082,2.081h1.838C47.036,146.862,47.968,145.93,47.968,144.781L47.968,144.781z"/>
<path d="M56.27,143.49c0-1.15-0.933-2.082-2.082-2.082h-1.837c-1.149,0-2.082,0.932-2.082,2.082l0,0
	c0,1.149,0.932,2.081,2.082,2.081h1.837C55.338,145.571,56.27,144.639,56.27,143.49L56.27,143.49z"/>
<path d="M39.758,202.142c0-1.149-0.932-2.082-2.082-2.082h-1.837c-1.148,0-2.082,0.933-2.082,2.082l0,0
	c0,1.15,0.933,2.082,2.082,2.082h1.837C38.826,204.223,39.758,203.292,39.758,202.142L39.758,202.142z"/>
<path d="M66.541,202.142c0-1.149-0.932-2.082-2.082-2.082h-3.343c-1.149,0-2.082,0.933-2.082,2.082h-0.008
	c0,1.15,0.939,2.082,2.09,2.082h3.343C65.609,204.223,66.541,203.292,66.541,202.142L66.541,202.142z"/>
<path d="M47.968,202.142c0-1.148-0.932-2.082-2.081-2.082h-1.838c-1.148,0-2.082,0.933-2.082,2.082l0,0
	c0,1.149,0.933,2.082,2.082,2.082h1.838C47.036,204.223,47.968,203.291,47.968,202.142L47.968,202.142z"/>
<path d="M56.27,202.142c0-1.149-0.933-2.082-2.082-2.082h-1.837c-1.149,0-2.082,0.933-2.082,2.082l0,0
	c0,1.15,0.932,2.082,2.082,2.082h1.837C55.338,204.223,56.27,203.292,56.27,202.142L56.27,202.142z"/>
<circle fill="#676767" cx="111.514" cy="115" r="1"/>
<circle fill="#676767" cx="75.514" cy="1" r="1"/>
<circle fill="#676767" cx="5.534" cy="36.886" r="1"/>
<g>
	<path fill="#676767" d="M61.711,71.539c-0.272-2.369,1.762-3.844,4.542-3.291c2.781,0.552,5.261,2.922,5.535,5.29
		c0.272,2.368-1.763,3.843-4.542,3.29C64.463,76.276,61.983,73.906,61.711,71.539z"/>
	<path fill="#FFFFFF" d="M62.55,71.706c-0.228-1.976,1.469-3.202,3.785-2.742c2.317,0.46,4.386,2.435,4.612,4.408
		c0.229,1.973-1.467,3.201-3.786,2.74C64.845,75.653,62.778,73.679,62.55,71.706z"/>
	<path fill="#333333" d="M65.434,72.278c-0.072-0.619,0.46-1.003,1.185-0.858c0.728,0.145,1.375,0.762,1.446,1.381
		c0.071,0.618-0.46,1.002-1.188,0.858C66.151,73.514,65.504,72.896,65.434,72.278z"/>
</g>
<path fill="none" stroke="#FFFFFF" stroke-width="1.1" stroke-linecap="round" d="M16.119,94.111c0-9.32,7.558-16.876,16.878-16.876
	c9.321,0,16.879,7.556,16.879,16.876"/>
<g>
	<path fill="#676767" d="M67.24,84.978c1.732-3.131,5.498-3.155,8.414-0.056c2.912,3.097,3.873,8.152,2.143,11.282
		c-1.733,3.129-5.503,3.152-8.413,0.056C66.469,93.161,65.507,88.104,67.24,84.978z"/>
	<path fill="#FFFFFF" d="M68.118,85.912c1.443-2.608,4.584-2.628,7.009-0.046c2.43,2.582,3.232,6.793,1.788,9.4
		c-1.439,2.607-4.582,2.629-7.013,0.044C67.479,92.732,66.677,88.519,68.118,85.912z"/>
	<path fill="#333333" d="M71.139,89.125c0.451-0.82,1.436-0.823,2.193-0.018c0.763,0.812,1.017,2.129,0.562,2.947
		c-0.452,0.817-1.437,0.821-2.197,0.012C70.937,91.26,70.685,89.941,71.139,89.125z"/>
</g>
<path d="M26.31,93.906c0-3.688,2.994-6.688,6.688-6.688c3.694,0,6.688,3,6.688,6.688c0,3.693-2.994,6.688-6.688,6.688
	C29.304,100.593,26.31,97.599,26.31,93.906z"/>
<path fill="none" stroke="#989898" stroke-width="1.1" stroke-linecap="round" d="M49.878,93.825c0,9.32-7.558,16.876-16.878,16.876
	s-16.879-7.556-16.879-16.876"/>
<path fill="none" stroke="#989898" stroke-width="0.77" stroke-linecap="round" d="M41.633,86.206
	c4.353,4.861,3.938,12.331-0.925,16.682c-4.861,4.353-12.33,3.939-16.682-0.922"/>
<rect x="6.702" y="220.42" fill="#676767" width="68.994" height="2.5"/>
<rect x="6.527" y="225.405" fill="#515050" width="20.504" height="80"/>
<rect x="50.696" y="225.405" fill="#515050" width="25" height="80"/>
<rect x="27.197" y="225.405" fill="#CDCCCC" width="23.499" height="80"/>
<line fill="none" stroke="#333333" x1="27.205" y1="228.438" x2="50.934" y2="228.438"/>
<line fill="none" stroke="#333333" x1="27.205" y1="231.573" x2="50.934" y2="231.573"/>
<line fill="none" stroke="#333333" x1="27.205" y1="237.84" x2="50.934" y2="237.84"/>
<line fill="none" stroke="#333333" x1="27.205" y1="240.974" x2="50.934" y2="240.974"/>
<line fill="none" stroke="#333333" x1="27.205" y1="244.107" x2="50.934" y2="244.107"/>
<line fill="none" stroke="#333333" x1="27.205" y1="247.241" x2="50.934" y2="247.241"/>
<line fill="none" stroke="#333333" x1="27.205" y1="250.375" x2="50.934" y2="250.375"/>
<line fill="none" stroke="#333333" x1="27.205" y1="253.509" x2="50.934" y2="253.509"/>
<line fill="none" stroke="#333333" x1="27.205" y1="256.643" x2="50.934" y2="256.643"/>
<line fill="none" stroke="#333333" x1="27.205" y1="259.776" x2="50.934" y2="259.776"/>
<line fill="none" stroke="#333333" x1="27.205" y1="269.178" x2="50.934" y2="269.178"/>
<line fill="none" stroke="#333333" x1="27.205" y1="272.312" x2="50.934" y2="272.312"/>
<line fill="none" stroke="#333333" x1="27.205" y1="275.445" x2="50.934" y2="275.445"/>
<line fill="none" stroke="#CDCCCC" x1="36.844" y1="227.081" x2="36.844" y2="277.804"/>
<rect x="26.981" y="303.391" fill="#3C3C3C" width="23.953" height="4.253"/>
<line fill="none" stroke="#000000" x1="50.696" y1="225.405" x2="50.696" y2="308.155"/>
<path fill="none" stroke="#000000" d="M47.997,102.906c0,0,34.502,16.855,34.502,54.22c0,24.099-20.941,30.598-20.941,45.219"/>
</svg>
